# xmcd CD database file
#
# Track frame offsets:
#	150
#	29085
#	51677
#	73027
#	98701
#	121201
#	145215
#	169855
#	192855
#
# Disc length: 3112 seconds
#
# Revision: 1
# Processed by: cddbd v1.5PL3 Copyright (c) Steve Scherf et al.
# Submitted via: CDex 1.51
#
DISCID=870c2609
DTITLE=move - TropicanTrops
DYEAR=2002
DGENRE=Dance
TTITLE0=Gamble Rumble -Puertronic mix
TTITLE1=FUTURE BREEZE -Tropicana mix
TTITLE2=cafe ROZA ~for johnny&mary~ -Dubby Boss mix
TTITLE3=MUGEN -Nu-Salsoul mix
TTITLE4=singin' 4U -Love and Soul mix
TTITLE5=Creamy Soup -Tech nova mix
TTITLE6=Blazin' Beat -Brazilian Beat mix
TTITLE7=SPRING BREEZE -Copacabana mix
TTITLE8=GambleRumble -Puertronic Club mix
EXTD=YEAR: 2002
EXTT0=
EXTT1=
EXTT2=
EXTT3=
EXTT4=
EXTT5=
EXTT6=
EXTT7=
EXTT8=
PLAYORDER=
